Coordinates
version=1
nRows=40
nColumns=30
inDegrees=yes

Units are S.I. units (second, meters, Newtons, ...)
Angles are in degrees.

endheader
time	floatyaw	floatroll	floatpitch	floatx	floaty	floatz	pro_sup_l	deviation_l	flexion_l	cmc_flexion_l	cmc_abduction_l	mp_flexion_l	ip_flexion_l	2mcp_flexion_l	2mcp_abduction_l	2pm_flexion_l	2md_flexion_l	3mcp_flexion_l	3mcp_abduction_l	3pm_flexion_l	3md_flexion_l	4mcp_flexion_l	4mcp_abduction_l	4pm_flexion_l	4md_flexion_l	5mcp_flexion_l	5mcp_abduction_l	5pm_flexion_l	5md_flexion_l
-1.495000	-0.845308	-4.283240	94.249796	-0.006818	-0.268864	-0.000795	89.814034	-1.218206	-2.133393	27.202156	2.526234	-18.338659	-33.676629	18.384014	5.301084	33.466526	20.918798	8.418481	3.819374	35.714082	21.503703	-1.772278	-3.258522	53.089964	33.399846	-20.130478	-8.987002	60.855334	49.274308
-1.485000	-0.845308	-4.283240	94.249796	-0.006845	-0.268882	-0.000783	89.800765	-1.230973	-2.143847	27.194349	2.552465	-18.333058	-33.694939	18.400721	5.285797	33.443714	20.917531	8.470567	3.802868	35.638708	21.455994	-1.748045	-3.235031	53.049996	33.371811	-20.122342	-8.968660	60.852396	49.273355
-1.475000	-0.845308	-4.283240	94.249796	-0.006867	-0.268899	-0.000755	89.792392	-1.245811	-2.158788	27.201743	2.595405	-18.349588	-33.737718	18.422513	5.272286	33.426008	20.927211	8.528360	3.792412	35.567873	21.423202	-1.712234	-3.214548	52.998735	33.351050	-20.109733	-8.956073	60.855012	49.268046
-1.465000	-0.845308	-4.283240	94.249796	-0.006890	-0.268913	-0.000714	89.789208	-1.261082	-2.173988	27.212543	2.639434	-18.379914	-33.781498	18.451602	5.259887	33.401448	20.933671	8.583372	3.789867	35.504743	21.401119	-1.673302	-3.199183	52.936661	33.337020	-20.098080	-8.954506	60.842596	49.264649
-1.455000	-0.845308	-4.283240	94.249796	-0.006917	-0.268921	-0.000666	89.788398	-1.275169	-2.185683	27.215521	2.673043	-18.413456	-33.805199	18.492629	5.246691	33.358444	20.921901	8.631138	3.794755	35.448005	21.380850	-1.637713	-3.189820	52.864921	33.328993	-20.089212	-8.964761	60.796900	49.273398
-1.445000	-0.845308	-4.283240	94.249796	-0.006946	-0.268921	-0.000623	89.784591	-1.286972	-2.191667	27.203577	2.695057	-18.442039	-33.798713	18.548817	5.230812	33.292952	20.883406	8.670500	3.804375	35.396204	21.354484	-1.608014	-3.185835	52.787427	33.326536	-20.082005	-8.983006	60.711568	49.302718
-1.435000	-0.845308	-4.283240	94.249796	-0.006975	-0.268912	-0.000593	89.772236	-1.296117	-2.192011	27.174681	2.714397	-18.462062	-33.764731	18.618848	5.211827	33.211287	20.820538	8.701927	3.815185	35.350993	21.320024	-1.582817	-3.185656	52.711139	33.329497	-20.073502	-9.003300	60.594774	49.354422
-1.425000	-0.845308	-4.283240	94.249796	-0.006997	-0.268897	-0.000581	89.748913	-1.302549	-2.188842	27.131484	2.743013	-18.473731	-33.714814	18.695633	5.191392	33.127785	20.746222	8.725402	3.824617	35.317795	21.283583	-1.558971	-3.187809	52.644556	33.338116	-20.060116	-9.021045	60.464713	49.422480
-1.415000	-0.845308	-4.283240	94.249796	-0.007008	-0.268878	-0.000586	89.718142	-1.305708	-2.185046	27.080674	2.785561	-18.478376	-33.663490	18.766762	5.172615	33.059741	20.679446	8.738298	3.832188	35.304336	21.257865	-1.535121	-3.191668	52.595834	33.353015	-20.038990	-9.035189	60.341615	49.495399
-1.405000	-0.845308	-4.283240	94.249796	-0.007007	-0.268859	-0.000603	89.690064	-1.303969	-2.182651	27.031952	2.832251	-18.475790	-33.623478	18.816793	5.158734	33.022258	20.638240	8.734858	3.839197	35.317708	21.257028	-1.514093	-3.197308	52.571267	33.374505	-20.009107	-9.047939	60.240568	49.560383
-1.395000	-0.845308	-4.283240	94.249796	-0.006995	-0.268844	-0.000624	89.678655	-1.295125	-2.182069	26.995837	2.860889	-18.463657	-33.602815	18.831954	5.152052	33.024130	20.632782	8.709041	3.847310	35.360568	21.289636	-1.501593	-3.204672	52.573750	33.401321	-19.971539	-9.062427	60.167927	49.607216
-1.385000	-0.845308	-4.283240	94.249796	-0.006977	-0.268833	-0.000647	89.695782	-1.277896	-2.182624	26.980341	2.848707	-18.439743	-33.603301	18.806285	5.153579	33.065266	20.661526	8.659854	3.857031	35.428124	21.353066	-1.501605	-3.212888	52.601335	33.429727	-19.929041	-9.080152	60.122120	49.630555
-1.375000	-0.845308	-4.283240	94.249796	-0.006957	-0.268825	-0.000666	89.744662	-1.253503	-2.183663	26.987831	2.787210	-18.405260	-33.620134	18.745893	5.163113	33.136537	20.712233	8.595066	3.867074	35.508333	21.432951	-1.512363	-3.220410	52.647223	33.453976	-19.885984	-9.100107	60.097808	49.630564
-1.365000	-0.845308	-4.283240	94.249796	-0.006937	-0.268819	-0.000682	89.816410	-1.226189	-2.185136	27.013941	2.690082	-18.366667	-33.643506	18.667843	5.179269	33.222601	20.767479	8.529440	3.874991	35.586145	21.508673	-1.527020	-3.225884	52.702265	33.468239	-19.849155	-9.119841	60.090596	49.612573
-1.355000	-0.845308	-4.283240	94.249796	-0.006918	-0.268815	-0.000693	89.891876	-1.202296	-2.187302	27.049516	2.588731	-18.334291	-33.662645	18.593602	5.199442	33.306751	20.811680	8.477987	3.878608	35.649441	21.562051	-1.539135	-3.229043	52.758993	33.469143	-19.828419	-9.136980	60.099325	49.586312
-1.345000	-0.845308	-4.283240	94.249796	-0.006902	-0.268815	-0.000698	89.948210	-1.188359	-2.190251	27.084720	2.518534	-18.318536	-33.671056	18.540986	5.220110	33.375434	20.835982	8.449150	3.877338	35.692682	21.584208	-1.548441	-3.230896	52.814408	33.457659	-19.835206	-9.149679	60.124808	49.564469
-1.335000	-0.845308	-4.283240	94.249796	-0.006888	-0.268824	-0.000696	89.967143	-1.189022	-2.193991	27.112885	2.504479	-18.325952	-33.669803	18.519310	5.237765	33.420408	20.839250	8.442865	3.872481	35.716054	21.577134	-1.561690	-3.232988	52.869444	33.439418	-19.877974	-9.156017	60.166515	49.559755
-1.325000	-0.845308	-4.283240	94.249796	-0.006878	-0.268847	-0.000685	89.941331	-1.205546	-2.198968	27.131826	2.553549	-18.357022	-33.665979	18.529260	5.250114	33.438428	20.826165	8.453925	3.866360	35.721599	21.550342	-1.587616	-3.236206	52.925613	33.423141	-19.956694	-9.153596	60.220065	49.580403
-1.315000	-0.845308	-4.283240	94.249796	-0.006874	-0.268887	-0.000665	89.876507	-1.235259	-2.206227	27.142500	2.655260	-18.406176	-33.666995	18.565280	5.256764	33.430206	20.804617	8.476727	3.860998	35.710247	21.515787	-1.629923	-3.240041	52.981660	33.417559	-20.059973	-9.140190	60.277795	49.625756
-1.305000	-0.845308	-4.283240	94.249796	-0.006876	-0.268942	-0.000639	89.789440	-1.271938	-2.216792	27.147138	2.786759	-18.463553	-33.675133	18.617530	5.258897	33.400515	20.783661	8.507187	3.857285	35.682668	21.484107	-1.683500	-3.242960	53.032970	33.427966	-20.166971	-9.115117	60.332521	49.684855
-1.295000	-0.845308	-4.283240	94.249796	-0.006882	-0.269003	-0.000612	89.703068	-1.306976	-2.230721	27.148700	2.918713	-18.517580	-33.686813	18.672640	5.258183	33.359411	20.771877	8.541088	3.855060	35.643206	21.463056	-1.736360	-3.243717	53.074189	33.454022	-20.253475	-9.080259	60.382178	49.739814
-1.285000	-0.845308	-4.283240	94.249796	-0.006888	-0.269057	-0.000591	89.640257	-1.331306	-2.246619	27.151243	3.021212	-18.557575	-33.696698	18.714914	5.255755	33.322402	20.775564	8.571802	3.853684	35.602762	21.457082	-1.775706	-3.242660	53.102813	33.489943	-20.299496	-9.039902	60.432078	49.772731
-1.275000	-0.845308	-4.283240	94.249796	-0.006890	-0.269094	-0.000582	89.617546	-1.337904	-2.262109	27.159587	3.070792	-18.576067	-33.702642	18.729878	5.252073	33.307313	20.796950	8.591019	3.852522	35.576705	21.466830	-1.793783	-3.241949	53.120654	33.526881	-20.295185	-8.999408	60.492901	49.772449
-1.265000	-0.845308	-4.283240	94.249796	-0.006882	-0.269108	-0.000591	89.640461	-1.324187	-2.274948	27.177608	3.058069	-18.570712	-33.707468	18.709804	5.247784	33.327929	20.833296	8.593081	3.851061	35.577836	21.488599	-1.789914	-3.244395	53.132010	33.556258	-20.242676	-8.963355	60.575230	49.737560
-1.255000	-0.845308	-4.283240	94.249796	-0.006865	-0.269097	-0.000616	89.702046	-1.293182	-2.283991	27.206004	2.992309	-18.545006	-33.716705	18.658153	5.244775	33.387378	20.877642	8.579533	3.848858	35.609015	21.514888	-1.768629	-3.251651	53.140437	33.572633	-20.153658	-8.934209	60.683468	49.674559
-1.245000	-0.845308	-4.283240	94.249796	-0.006839	-0.269068	-0.000655	89.785412	-1.252611	-2.289355	27.240996	2.898859	-18.506927	-33.734417	18.589608	5.246266	33.475041	20.921171	8.559600	3.845594	35.660789	21.536901	-1.736581	-3.263020	53.147138	33.575227	-20.044787	-8.912379	60.812346	49.593003
-1.235000	-0.845308	-4.283240	94.249796	-0.006808	-0.269027	-0.000701	89.869515	-1.212115	-2.291847	27.275016	2.809333	-18.465824	-33.759968	18.524827	5.255445	33.569181	20.956370	8.545396	3.841345	35.715918	21.548443	-1.700661	-3.275730	53.152066	33.567695	-19.933616	-8.897648	60.947980	49.501097
-1.225000	-0.845308	-4.283240	94.249796	-0.006776	-0.268982	-0.000751	89.935839	-1.179933	-2.292091	27.299377	2.749379	-18.429371	-33.787438	18.482280	5.273393	33.644650	20.979602	8.544789	3.836896	35.758050	21.549101	-1.667654	-3.286494	53.156294	33.556204	-19.836362	-8.890829	61.073152	49.404194
-1.215000	-0.845308	-4.283240	94.249796	-0.006746	-0.268939	-0.000799	89.973333	-1.160640	-2.289820	27.307838	2.730302	-18.402287	-33.807783	18.471085	5.297768	33.682458	20.991781	8.556676	3.833783	35.779316	21.544439	-1.644298	-3.293253	53.163203	33.546583	-19.766887	-8.894172	61.173990	49.306292
-1.205000	-0.845308	-4.283240	94.249796	-0.006722	-0.268899	-0.000843	89.980152	-1.154803	-2.283793	27.299523	2.747818	-18.387035	-33.812791	18.488305	5.323414	33.676754	20.996687	8.571955	3.833861	35.782425	21.542410	-1.636262	-3.295922	53.176970	33.541854	-19.735146	-8.909934	61.243924	49.212451
-1.195000	-0.845308	-4.283240	94.249796	-0.006705	-0.268865	-0.000879	89.962458	-1.160178	-2.272630	27.279758	2.786956	-18.385089	-33.799086	18.521816	5.344723	33.635888	20.997879	8.579727	3.838517	35.776572	21.547861	-1.645597	-3.295788	53.198935	33.541303	-19.744344	-8.938173	61.282597	49.129744
-1.185000	-0.845308	-4.283240	94.249796	-0.006698	-0.268834	-0.000902	89.931379	-1.173358	-2.256193	27.258112	2.829517	-18.397067	-33.770034	18.556741	5.358292	33.577515	20.996229	8.574445	3.847959	35.770576	21.558856	-1.668258	-3.294233	53.224554	33.541361	-19.788533	-8.975542	61.291597	49.065679
-1.175000	-0.845308	-4.283240	94.249796	-0.006700	-0.268807	-0.000909	89.899199	-1.190909	-2.236513	27.244161	2.860438	-18.421374	-33.734255	18.581680	5.364075	33.520774	20.989597	8.558966	3.861010	35.768102	21.567529	-1.694424	-3.291869	53.243942	33.537574	-19.853607	-9.016083	61.271459	49.024948
-1.165000	-0.845308	-4.283240	94.249796	-0.006713	-0.268785	-0.000899	89.875688	-1.209732	-2.217441	27.243043	2.871008	-18.452745	-33.701446	18.591780	5.364342	33.479487	20.974603	8.541715	3.875523	35.767446	21.564916	-1.712550	-3.288549	53.246418	33.526464	-19.922518	-9.053511	61.222732	49.006414
-1.155000	-0.845308	-4.283240	94.249796	-0.006737	-0.268773	-0.000875	89.865541	-1.227048	-2.203128	27.253170	2.859134	-18.482518	-33.677946	18.588169	5.361343	33.458930	20.949196	8.530692	3.889156	35.764701	21.546365	-1.714879	-3.283907	53.226220	33.506427	-19.981878	-9.083390	61.149726	49.002172
-1.145000	-0.845308	-4.283240	94.249796	-0.006769	-0.268774	-0.000840	89.867667	-1.240565	-2.196181	27.267117	2.828286	-18.501054	-33.664578	18.575270	5.355523	33.456627	20.914665	8.528865	3.900105	35.757198	21.514233	-1.700755	-3.277756	53.185579	33.477692	-20.025966	-9.103876	61.063169	48.999663
-1.135000	-0.845308	-4.283240	94.249796	-0.006807	-0.268788	-0.000803	89.876527	-1.248986	-2.196455	27.274900	2.786307	-18.501057	-33.657701	18.557937	5.345588	33.465713	20.876326	8.533737	3.907464	35.744777	21.476775	-1.675787	-3.270114	53.133275	33.442144	-20.056381	-9.114972	60.978848	48.986377
-1.125000	-0.845308	-4.283240	94.249796	-0.006845	-0.268811	-0.000769	89.885043	-1.252475	-2.200999	27.267906	2.743623	-18.480092	-33.652313	18.539662	5.330265	33.478543	20.842558	8.540510	3.911145	35.728470	21.444374	-1.648022	-3.261075	53.079808	33.403609	-20.078614	-9.117477	60.911993	48.955226
-1.115000	-0.845308	-4.283240	94.249796	-0.006879	-0.268836	-0.000741	89.887927	-1.252589	-2.205223	27.241923	2.709962	-18.441382	-33.644886	18.522167	5.310268	33.488700	20.822109	8.546021	3.911516	35.708100	21.425174	-1.623990	-3.250842	53.032235	33.368177	-20.098177	-9.112756	60.870040	48.907969
-1.105000	-0.845308	-4.283240	94.249796	-0.006907	-0.268853	-0.000718	89.883831	-1.251576	-2.204843	27.198345	2.690457	-18.392968	-33.634294	18.506162	5.288897	33.491146	20.820291	8.550717	3.909066	35.681067	21.421894	-1.606851	-3.239999	52.991566	33.343336	-20.118215	-9.103193	60.848158	48.854982
